<svg xmlns="http://www.w3.org/2000/svg" xmlns:xlink="http://www.w3.org/1999/xlink" width="500" zoomAndPan="magnify" viewBox="0 0 375 374.999991" height="500" preserveAspectRatio="xMidYMid meet" version="1.0"><defs><g/><clipPath id="07c7a30f43"><path d="M 0.0234375 89.339844 L 205.476562 89.339844 L 205.476562 285.832031 L 0.0234375 285.832031 Z M 0.0234375 89.339844 " clip-rule="nonzero"/></clipPath><clipPath id="c61a715893"><path d="M 157.992188 89.34375 C 121.695312 89.34375 92.269531 118.804688 92.269531 155.148438 L 92.269531 234.175781 C 92.269531 258.929688 72.226562 278.992188 47.507812 278.992188 L 20.988281 278.992188 L 20.988281 212.792969 C 20.988281 202.125 29.628906 193.472656 40.285156 193.472656 L 60.585938 193.472656 C 66.503906 193.472656 71.304688 188.671875 71.304688 182.746094 L 71.304688 172.484375 L 40.285156 172.484375 C 18.050781 172.484375 0.0234375 190.53125 0.0234375 212.792969 L 0.0234375 285.832031 L 47.507812 285.832031 C 83.804688 285.832031 113.230469 256.371094 113.230469 220.027344 L 113.230469 141 C 113.230469 116.246094 133.273438 96.179688 157.992188 96.179688 L 184.511719 96.179688 L 184.511719 162.378906 C 184.511719 173.050781 175.871094 181.699219 165.214844 181.699219 L 144.914062 181.699219 C 138.996094 181.699219 134.195312 186.503906 134.195312 192.429688 L 134.195312 202.691406 L 165.214844 202.691406 C 187.449219 202.691406 205.476562 184.644531 205.476562 162.378906 L 205.476562 89.34375 Z M 157.992188 89.34375 " clip-rule="nonzero"/></clipPath><clipPath id="04d1efed93"><path d="M 157.992188 89.34375 C 121.695312 89.34375 92.269531 118.804688 92.269531 155.148438 L 92.269531 234.175781 C 92.269531 258.929688 72.226562 278.992188 47.507812 278.992188 L 20.988281 278.992188 L 20.988281 212.792969 C 20.988281 202.125 29.628906 193.472656 40.285156 193.472656 L 60.585938 193.472656 C 66.503906 193.472656 71.304688 188.671875 71.304688 182.746094 L 71.304688 172.484375 L 40.285156 172.484375 C 18.050781 172.484375 0.0234375 190.53125 0.0234375 212.792969 L 0.0234375 285.832031 L 47.507812 285.832031 C 83.804688 285.832031 113.230469 256.371094 113.230469 220.027344 L 113.230469 141 C 113.230469 116.246094 133.273438 96.179688 157.992188 96.179688 L 184.511719 96.179688 L 184.511719 162.378906 C 184.511719 173.050781 175.871094 181.699219 165.214844 181.699219 L 144.914062 181.699219 C 138.996094 181.699219 134.195312 186.503906 134.195312 192.429688 L 134.195312 202.691406 L 165.214844 202.691406 C 187.449219 202.691406 205.476562 184.644531 205.476562 162.378906 L 205.476562 89.34375 L 157.992188 89.34375 " clip-rule="nonzero"/></clipPath><clipPath id="f0743fc4ce"><path d="M 299.496094 215.699219 L 132.140625 -9.210938 L -93.996094 159.476562 L 73.359375 384.386719 Z M 299.496094 215.699219 " clip-rule="nonzero"/></clipPath><linearGradient x1="-0.0049169" gradientTransform="matrix(-380.445181, 283.792413, -283.440793, -380.917131, 213.948679, 104.638697)" y1="0" x2="0.589489" gradientUnits="userSpaceOnUse" y2="0" id="a830c32ca3"><stop stop-opacity="1" stop-color="rgb(36.099243%, 79.199219%, 95.698547%)" offset="0"/><stop stop-opacity="1" stop-color="rgb(36.099243%, 79.199219%, 95.698547%)" offset="0.015625"/><stop stop-opacity="1" stop-color="rgb(35.884094%, 79.18396%, 95.698547%)" offset="0.0195313"/><stop stop-opacity="1" stop-color="rgb(35.668945%, 79.170227%, 95.698547%)" offset="0.0234375"/><stop stop-opacity="1" stop-color="rgb(35.473633%, 78.98407%, 95.698547%)" offset="0.03125"/><stop stop-opacity="1" stop-color="rgb(35.083008%, 78.799438%, 95.698547%)" offset="0.0390625"/><stop stop-opacity="1" stop-color="rgb(34.692383%, 78.799438%, 95.698547%)" offset="0.046875"/><stop stop-opacity="1" stop-color="rgb(34.306335%, 78.607178%, 95.698547%)" offset="0.0625"/><stop stop-opacity="1" stop-color="rgb(33.894348%, 78.407288%, 95.698547%)" offset="0.0664063"/><stop stop-opacity="1" stop-color="rgb(33.674622%, 78.399658%, 95.698547%)" offset="0.0703125"/><stop stop-opacity="1" stop-color="rgb(33.479309%, 78.399658%, 95.698547%)" offset="0.078125"/><stop stop-opacity="1" stop-color="rgb(33.091736%, 78.395081%, 95.698547%)" offset="0.0859375"/><stop stop-opacity="1" stop-color="rgb(32.899475%, 78.196716%, 95.698547%)" offset="0.09375"/><stop stop-opacity="1" stop-color="rgb(32.704163%, 77.999878%, 95.698547%)" offset="0.101563"/><stop stop-opacity="1" stop-color="rgb(32.339478%, 77.999878%, 95.683289%)" offset="0.109375"/><stop stop-opacity="1" stop-color="rgb(31.974792%, 77.989197%, 95.483398%)" offset="0.117188"/><stop stop-opacity="1" stop-color="rgb(31.582642%, 77.787781%, 95.298767%)" offset="0.121094"/><stop stop-opacity="1" stop-color="rgb(31.387329%, 77.598572%, 95.298767%)" offset="0.125"/><stop stop-opacity="1" stop-color="rgb(31.193542%, 77.598572%, 95.298767%)" offset="0.140625"/><stop stop-opacity="1" stop-color="rgb(30.781555%, 77.586365%, 95.298767%)" offset="0.144531"/><stop stop-opacity="1" stop-color="rgb(30.56488%, 77.574158%, 95.298767%)" offset="0.148438"/><stop stop-opacity="1" stop-color="rgb(30.369568%, 77.436829%, 95.298767%)" offset="0.15625"/><stop stop-opacity="1" stop-color="rgb(29.978943%, 77.2995%, 95.298767%)" offset="0.164062"/><stop stop-opacity="1" stop-color="rgb(29.59137%, 77.2995%, 95.298767%)" offset="0.171875"/><stop stop-opacity="1" stop-color="rgb(29.205322%, 77.104187%, 95.298767%)" offset="0.1875"/><stop stop-opacity="1" stop-color="rgb(28.790283%, 76.904297%, 95.298767%)" offset="0.191406"/><stop stop-opacity="1" stop-color="rgb(28.570557%, 76.899719%, 95.298767%)" offset="0.195312"/><stop stop-opacity="1" stop-color="rgb(28.373718%, 76.889038%, 95.298767%)" offset="0.199219"/><stop stop-opacity="1" stop-color="rgb(28.178406%, 76.878357%, 95.298767%)" offset="0.203125"/><stop stop-opacity="1" stop-color="rgb(27.987671%, 76.689148%, 95.298767%)" offset="0.21875"/><stop stop-opacity="1" stop-color="rgb(27.650452%, 76.499939%, 95.298767%)" offset="0.226563"/><stop stop-opacity="1" stop-color="rgb(27.284241%, 76.481628%, 95.298767%)" offset="0.230469"/><stop stop-opacity="1" stop-color="rgb(27.06604%, 76.464844%, 95.298767%)" offset="0.234375"/><stop stop-opacity="1" stop-color="rgb(26.869202%, 76.281738%, 95.298767%)" offset="0.238281"/><stop stop-opacity="1" stop-color="rgb(26.673889%, 76.098633%, 95.298767%)" offset="0.242188"/><stop stop-opacity="1" stop-color="rgb(26.486206%, 76.098633%, 95.298767%)" offset="0.25"/><stop stop-opacity="1" stop-color="rgb(26.295471%, 76.098633%, 95.298767%)" offset="0.257812"/><stop stop-opacity="1" stop-color="rgb(26.097107%, 76.098633%, 95.298767%)" offset="0.265625"/><stop stop-opacity="1" stop-color="rgb(25.680542%, 75.898743%, 95.098877%)" offset="0.269531"/><stop stop-opacity="1" stop-color="rgb(25.460815%, 75.698853%, 94.898987%)" offset="0.273438"/><stop stop-opacity="1" stop-color="rgb(25.265503%, 75.698853%, 94.898987%)" offset="0.28125"/><stop stop-opacity="1" stop-color="rgb(24.879456%, 75.692749%, 94.898987%)" offset="0.296875"/><stop stop-opacity="1" stop-color="rgb(24.493408%, 75.492859%, 94.898987%)" offset="0.304688"/><stop stop-opacity="1" stop-color="rgb(24.101257%, 75.299072%, 94.898987%)" offset="0.308594"/><stop stop-opacity="1" stop-color="rgb(23.905945%, 75.299072%, 94.898987%)" offset="0.3125"/><stop stop-opacity="1" stop-color="rgb(23.684692%, 75.299072%, 94.898987%)" offset="0.316406"/><stop stop-opacity="1" stop-color="rgb(23.464966%, 75.299072%, 94.898987%)" offset="0.320313"/><stop stop-opacity="1" stop-color="rgb(23.269653%, 75.286865%, 94.898987%)" offset="0.328125"/><stop stop-opacity="1" stop-color="rgb(22.883606%, 75.086975%, 94.898987%)" offset="0.34375"/><stop stop-opacity="1" stop-color="rgb(22.547913%, 74.899292%, 94.898987%)" offset="0.351562"/><stop stop-opacity="1" stop-color="rgb(22.181702%, 74.879456%, 94.898987%)" offset="0.355469"/><stop stop-opacity="1" stop-color="rgb(21.961975%, 74.861145%, 94.898987%)" offset="0.359375"/><stop stop-opacity="1" stop-color="rgb(21.765137%, 74.679565%, 94.898987%)" offset="0.363281"/><stop stop-opacity="1" stop-color="rgb(21.569824%, 74.499512%, 94.898987%)" offset="0.367188"/><stop stop-opacity="1" stop-color="rgb(21.383667%, 74.499512%, 94.898987%)" offset="0.375"/><stop stop-opacity="1" stop-color="rgb(21.192932%, 74.499512%, 94.898987%)" offset="0.382812"/><stop stop-opacity="1" stop-color="rgb(20.993042%, 74.497986%, 94.898987%)" offset="0.390625"/><stop stop-opacity="1" stop-color="rgb(20.576477%, 74.298096%, 94.898987%)" offset="0.394531"/><stop stop-opacity="1" stop-color="rgb(20.35675%, 74.099731%, 94.898987%)" offset="0.398438"/><stop stop-opacity="1" stop-color="rgb(20.161438%, 74.099731%, 94.898987%)" offset="0.40625"/><stop stop-opacity="1" stop-color="rgb(19.78302%, 74.087524%, 94.88678%)" offset="0.414063"/><stop stop-opacity="1" stop-color="rgb(19.592285%, 73.887634%, 94.68689%)" offset="0.421875"/><stop stop-opacity="1" stop-color="rgb(19.387817%, 73.699951%, 94.499207%)" offset="0.425781"/><stop stop-opacity="1" stop-color="rgb(19.192505%, 73.699951%, 94.499207%)" offset="0.429688"/><stop stop-opacity="1" stop-color="rgb(18.997192%, 73.699951%, 94.499207%)" offset="0.4375"/><stop stop-opacity="1" stop-color="rgb(18.580627%, 73.680115%, 94.499207%)" offset="0.441406"/><stop stop-opacity="1" stop-color="rgb(18.360901%, 73.661804%, 94.499207%)" offset="0.445312"/><stop stop-opacity="1" stop-color="rgb(18.179321%, 73.480225%, 94.499207%)" offset="0.453125"/><stop stop-opacity="1" stop-color="rgb(17.988586%, 73.298645%, 94.499207%)" offset="0.460938"/><stop stop-opacity="1" stop-color="rgb(17.785645%, 73.298645%, 94.499207%)" offset="0.46875"/><stop stop-opacity="1" stop-color="rgb(17.443848%, 73.297119%, 94.499207%)" offset="0.476562"/><stop stop-opacity="1" stop-color="rgb(17.076111%, 73.097229%, 94.499207%)" offset="0.480469"/><stop stop-opacity="1" stop-color="rgb(16.856384%, 72.898865%, 94.499207%)" offset="0.484375"/><stop stop-opacity="1" stop-color="rgb(16.665649%, 72.898865%, 94.499207%)" offset="0.5"/><stop stop-opacity="1" stop-color="rgb(16.279602%, 72.891235%, 94.499207%)" offset="0.507812"/><stop stop-opacity="1" stop-color="rgb(15.887451%, 72.691345%, 94.499207%)" offset="0.511719"/><stop stop-opacity="1" stop-color="rgb(15.692139%, 72.499084%, 94.499207%)" offset="0.515625"/><stop stop-opacity="1" stop-color="rgb(15.472412%, 72.499084%, 94.499207%)" offset="0.519531"/><stop stop-opacity="1" stop-color="rgb(15.252686%, 72.499084%, 94.499207%)" offset="0.523438"/><stop stop-opacity="1" stop-color="rgb(15.075684%, 72.499084%, 94.499207%)" offset="0.53125"/><stop stop-opacity="1" stop-color="rgb(14.884949%, 72.488403%, 94.499207%)" offset="0.539063"/><stop stop-opacity="1" stop-color="rgb(14.674377%, 72.337341%, 94.499207%)" offset="0.542969"/><stop stop-opacity="1" stop-color="rgb(14.479065%, 72.198486%, 94.499207%)" offset="0.546875"/><stop stop-opacity="1" stop-color="rgb(14.283752%, 72.198486%, 94.499207%)" offset="0.554688"/><stop stop-opacity="1" stop-color="rgb(13.893127%, 72.198486%, 94.499207%)" offset="0.5625"/><stop stop-opacity="1" stop-color="rgb(13.476562%, 72.177124%, 94.477844%)" offset="0.566406"/><stop stop-opacity="1" stop-color="rgb(13.256836%, 72.157288%, 94.456482%)" offset="0.570313"/><stop stop-opacity="1" stop-color="rgb(13.078308%, 71.977234%, 94.277954%)" offset="0.578125"/><stop stop-opacity="1" stop-color="rgb(12.887573%, 71.798706%, 94.099426%)" offset="0.585938"/><stop stop-opacity="1" stop-color="rgb(12.68158%, 71.791077%, 94.099426%)" offset="0.59375"/><stop stop-opacity="1" stop-color="rgb(12.339783%, 71.591187%, 94.099426%)" offset="0.601563"/><stop stop-opacity="1" stop-color="rgb(11.972046%, 71.398926%, 94.099426%)" offset="0.605469"/><stop stop-opacity="1" stop-color="rgb(11.752319%, 71.398926%, 94.099426%)" offset="0.609375"/><stop stop-opacity="1" stop-color="rgb(11.561584%, 71.385193%, 94.099426%)" offset="0.625"/><stop stop-opacity="1" stop-color="rgb(11.175537%, 71.185303%, 94.099426%)" offset="0.632813"/><stop stop-opacity="1" stop-color="rgb(10.783386%, 70.999146%, 94.099426%)" offset="0.636719"/><stop stop-opacity="1" stop-color="rgb(10.588074%, 70.999146%, 94.099426%)" offset="0.640625"/><stop stop-opacity="1" stop-color="rgb(10.368347%, 70.999146%, 94.099426%)" offset="0.644531"/><stop stop-opacity="1" stop-color="rgb(10.148621%, 70.999146%, 94.099426%)" offset="0.648438"/><stop stop-opacity="1" stop-color="rgb(9.973145%, 70.977783%, 94.099426%)" offset="0.65625"/><stop stop-opacity="1" stop-color="rgb(9.78241%, 70.777893%, 94.099426%)" offset="0.664063"/><stop stop-opacity="1" stop-color="rgb(9.570312%, 70.599365%, 94.099426%)" offset="0.667969"/><stop stop-opacity="1" stop-color="rgb(9.375%, 70.599365%, 94.099426%)" offset="0.671875"/><stop stop-opacity="1" stop-color="rgb(9.179688%, 70.599365%, 94.099426%)" offset="0.679688"/><stop stop-opacity="1" stop-color="rgb(8.787537%, 70.596313%, 94.099426%)" offset="0.683594"/><stop stop-opacity="1" stop-color="rgb(8.592224%, 70.593262%, 94.099426%)" offset="0.6875"/><stop stop-opacity="1" stop-color="rgb(8.395386%, 70.396423%, 94.099426%)" offset="0.691406"/><stop stop-opacity="1" stop-color="rgb(8.198547%, 70.199585%, 94.099426%)" offset="0.695313"/><stop stop-opacity="1" stop-color="rgb(8.180237%, 70.199585%, 94.099426%)" offset="0.703125"/><stop stop-opacity="1" stop-color="rgb(7.969666%, 70.199585%, 94.099426%)" offset="0.710938"/><stop stop-opacity="1" stop-color="rgb(7.627869%, 70.188904%, 94.088745%)" offset="0.71875"/><stop stop-opacity="1" stop-color="rgb(7.28302%, 69.989014%, 93.888855%)" offset="0.722656"/><stop stop-opacity="1" stop-color="rgb(7.087708%, 69.799805%, 93.699646%)" offset="0.726563"/><stop stop-opacity="1" stop-color="rgb(6.892395%, 69.799805%, 93.699646%)" offset="0.734375"/><stop stop-opacity="1" stop-color="rgb(6.677246%, 69.799805%, 93.699646%)" offset="0.742188"/><stop stop-opacity="1" stop-color="rgb(6.462097%, 69.78302%, 93.699646%)" offset="0.75"/><stop stop-opacity="1" stop-color="rgb(6.071472%, 69.581604%, 93.699646%)" offset="0.757813"/><stop stop-opacity="1" stop-color="rgb(5.679321%, 69.398499%, 93.699646%)" offset="0.761719"/><stop stop-opacity="1" stop-color="rgb(5.482483%, 69.398499%, 93.699646%)" offset="0.765625"/><stop stop-opacity="1" stop-color="rgb(5.290222%, 69.398499%, 93.699646%)" offset="0.773438"/><stop stop-opacity="1" stop-color="rgb(5.076599%, 69.37561%, 93.699646%)" offset="0.78125"/><stop stop-opacity="1" stop-color="rgb(4.856873%, 69.17572%, 93.699646%)" offset="0.785156"/><stop stop-opacity="1" stop-color="rgb(4.66156%, 68.998718%, 93.699646%)" offset="0.789063"/><stop stop-opacity="1" stop-color="rgb(4.466248%, 68.998718%, 93.699646%)" offset="0.796875"/><stop stop-opacity="1" stop-color="rgb(4.075623%, 68.989563%, 93.699646%)" offset="0.804688"/><stop stop-opacity="1" stop-color="rgb(3.683472%, 68.789673%, 93.699646%)" offset="0.808594"/><stop stop-opacity="1" stop-color="rgb(3.488159%, 68.598938%, 93.699646%)" offset="0.8125"/><stop stop-opacity="1" stop-color="rgb(3.292847%, 68.598938%, 93.699646%)" offset="0.820313"/><stop stop-opacity="1" stop-color="rgb(3.077698%, 68.598938%, 93.699646%)" offset="0.828125"/><stop stop-opacity="1" stop-color="rgb(2.865601%, 68.582153%, 93.699646%)" offset="0.835938"/><stop stop-opacity="1" stop-color="rgb(2.52533%, 68.382263%, 93.699646%)" offset="0.84375"/><stop stop-opacity="1" stop-color="rgb(2.186584%, 68.199158%, 93.67981%)" offset="0.851563"/><stop stop-opacity="1" stop-color="rgb(2.198792%, 67.999268%, 93.280029%)" offset="0.855469"/><stop stop-opacity="1" stop-color="rgb(2.398682%, 67.799377%, 92.89856%)" offset="0.859375"/><stop stop-opacity="1" stop-color="rgb(2.398682%, 67.764282%, 92.698669%)" offset="0.863281"/><stop stop-opacity="1" stop-color="rgb(2.398682%, 67.730713%, 92.498779%)" offset="0.867188"/><stop stop-opacity="1" stop-color="rgb(2.426147%, 67.614746%, 92.349243%)" offset="0.875"/><stop stop-opacity="1" stop-color="rgb(2.577209%, 67.298889%, 91.999817%)" offset="0.878906"/><stop stop-opacity="1" stop-color="rgb(2.69928%, 67.098999%, 91.799927%)" offset="0.882813"/><stop stop-opacity="1" stop-color="rgb(2.69928%, 66.899109%, 91.78009%)" offset="0.886719"/><stop stop-opacity="1" stop-color="rgb(2.69928%, 66.699219%, 91.76178%)" offset="0.890625"/><stop stop-opacity="1" stop-color="rgb(2.758789%, 66.639709%, 91.520691%)" offset="0.894531"/><stop stop-opacity="1" stop-color="rgb(2.818298%, 66.5802%, 91.279602%)" offset="0.898438"/><stop stop-opacity="1" stop-color="rgb(2.958679%, 66.439819%, 91.088867%)" offset="0.90625"/><stop stop-opacity="1" stop-color="rgb(3.09906%, 66.099548%, 90.707397%)" offset="0.910156"/><stop stop-opacity="1" stop-color="rgb(3.09906%, 65.899658%, 90.516663%)" offset="0.914063"/><stop stop-opacity="1" stop-color="rgb(3.29895%, 65.866089%, 90.325928%)" offset="0.917969"/><stop stop-opacity="1" stop-color="rgb(3.49884%, 65.834045%, 90.135193%)" offset="0.921875"/><stop stop-opacity="1" stop-color="rgb(3.49884%, 65.666199%, 89.944458%)" offset="0.929688"/><stop stop-opacity="1" stop-color="rgb(3.517151%, 65.298462%, 89.556885%)" offset="0.933594"/><stop stop-opacity="1" stop-color="rgb(3.536987%, 65.098572%, 89.361572%)" offset="0.9375"/><stop stop-opacity="1" stop-color="rgb(3.717041%, 65.04364%, 89.125061%)" offset="0.941406"/><stop stop-opacity="1" stop-color="rgb(3.898621%, 64.988708%, 88.890076%)" offset="0.945313"/><stop stop-opacity="1" stop-color="rgb(3.898621%, 64.84375%, 88.697815%)" offset="0.953125"/><stop stop-opacity="1" stop-color="rgb(3.935242%, 64.498901%, 88.316345%)" offset="0.957031"/><stop stop-opacity="1" stop-color="rgb(3.973389%, 64.299011%, 88.12561%)" offset="0.960938"/><stop stop-opacity="1" stop-color="rgb(4.136658%, 64.271545%, 87.940979%)" offset="0.96875"/><stop stop-opacity="1" stop-color="rgb(4.299927%, 64.071655%, 87.628174%)" offset="0.976563"/><stop stop-opacity="1" stop-color="rgb(4.499817%, 63.699341%, 87.298584%)" offset="0.980469"/><stop stop-opacity="1" stop-color="rgb(4.699707%, 63.499451%, 87.098694%)" offset="0.984375"/><stop stop-opacity="1" stop-color="rgb(4.699707%, 63.449097%, 86.898804%)" offset="0.988281"/><stop stop-opacity="1" stop-color="rgb(4.699707%, 63.398743%, 86.698914%)" offset="0.992188"/><stop stop-opacity="1" stop-color="rgb(4.699707%, 63.249207%, 86.499023%)" offset="0.996094"/><stop stop-opacity="1" stop-color="rgb(4.699707%, 63.09967%, 86.299133%)" offset="1"/></linearGradient></defs><g clip-path="url(#07c7a30f43)"><g clip-path="url(#c61a715893)"><g clip-path="url(#04d1efed93)"><g clip-path="url(#f0743fc4ce)"><path fill="url(#a830c32ca3)" d="M 299.496094 215.699219 L 132.140625 -9.210938 L -93.996094 159.476562 L 73.359375 384.386719 Z M 299.496094 215.699219 " fill-rule="nonzero"/></g></g></g></g><g fill="#ffffff" fill-opacity="1"><g transform="translate(118.917632, 238.362198)"><g><path d="M 2.75 0 L 2.75 -25.4375 L 9.65625 -25.4375 L 9.65625 0 Z M 2.75 0 "/></g></g></g><g fill="#ffffff" fill-opacity="1"><g transform="translate(136.628049, 238.362198)"><g><path d="M 26.96875 0 L 17.953125 0 L 8.65625 -17.921875 L 8.5 -17.921875 C 8.726562 -15.097656 8.84375 -12.945312 8.84375 -11.46875 L 8.84375 0 L 2.75 0 L 2.75 -25.4375 L 11.71875 -25.4375 L 20.984375 -7.765625 L 21.078125 -7.765625 C 20.921875 -10.328125 20.84375 -12.382812 20.84375 -13.9375 L 20.84375 -25.4375 L 26.96875 -25.4375 Z M 26.96875 0 "/></g></g></g><g fill="#ffffff" fill-opacity="1"><g transform="translate(171.644538, 238.362198)"><g><path d="M 9.515625 0 L 2.75 0 L 2.75 -25.4375 L 17.78125 -25.4375 L 17.78125 -19.921875 L 9.515625 -19.921875 L 9.515625 -15.0625 L 17.140625 -15.0625 L 17.140625 -9.546875 L 9.515625 -9.546875 Z M 9.515625 0 "/></g></g></g><g fill="#ffffff" fill-opacity="1"><g transform="translate(196.155631, 238.362198)"><g><path d="M 2.75 0 L 2.75 -25.4375 L 9.65625 -25.4375 L 9.65625 0 Z M 2.75 0 "/></g></g></g><g fill="#ffffff" fill-opacity="1"><g transform="translate(213.866048, 238.362198)"><g><path d="M 26.96875 0 L 17.953125 0 L 8.65625 -17.921875 L 8.5 -17.921875 C 8.726562 -15.097656 8.84375 -12.945312 8.84375 -11.46875 L 8.84375 0 L 2.75 0 L 2.75 -25.4375 L 11.71875 -25.4375 L 20.984375 -7.765625 L 21.078125 -7.765625 C 20.921875 -10.328125 20.84375 -12.382812 20.84375 -13.9375 L 20.84375 -25.4375 L 26.96875 -25.4375 Z M 26.96875 0 "/></g></g></g><g fill="#ffffff" fill-opacity="1"><g transform="translate(248.882536, 238.362198)"><g><path d="M 2.75 0 L 2.75 -25.4375 L 9.65625 -25.4375 L 9.65625 0 Z M 2.75 0 "/></g></g></g><g fill="#ffffff" fill-opacity="1"><g transform="translate(266.592953, 238.362198)"><g><path d="M 13.96875 0 L 7.09375 0 L 7.09375 -19.8125 L 0.890625 -19.8125 L 0.890625 -25.4375 L 20.15625 -25.4375 L 20.15625 -19.8125 L 13.96875 -19.8125 Z M 13.96875 0 "/></g></g></g><g fill="#ffffff" fill-opacity="1"><g transform="translate(292.947717, 238.362198)"><g><path d="M 24.375 -25.4375 L 24.375 -10.125 C 24.375 -6.789062 23.429688 -4.210938 21.546875 -2.390625 C 19.660156 -0.566406 16.941406 0.34375 13.390625 0.34375 C 9.921875 0.34375 7.253906 -0.539062 5.390625 -2.3125 C 3.535156 -4.082031 2.609375 -6.632812 2.609375 -9.96875 L 2.609375 -25.4375 L 9.515625 -25.4375 L 9.515625 -10.5 C 9.515625 -8.707031 9.847656 -7.40625 10.515625 -6.59375 C 11.191406 -5.78125 12.1875 -5.375 13.5 -5.375 C 14.90625 -5.375 15.921875 -5.773438 16.546875 -6.578125 C 17.179688 -7.390625 17.5 -8.710938 17.5 -10.546875 L 17.5 -25.4375 Z M 24.375 -25.4375 "/></g></g></g><g fill="#ffffff" fill-opacity="1"><g transform="translate(325.216113, 238.362198)"><g><path d="M 24.328125 -13.25 C 24.328125 -9.007812 23.160156 -5.738281 20.828125 -3.4375 C 18.492188 -1.144531 15.207031 0 10.96875 0 L 2.75 0 L 2.75 -25.4375 L 11.546875 -25.4375 C 15.628906 -25.4375 18.78125 -24.390625 21 -22.296875 C 23.21875 -20.210938 24.328125 -17.195312 24.328125 -13.25 Z M 17.203125 -13.015625 C 17.203125 -15.347656 16.738281 -17.070312 15.8125 -18.1875 C 14.894531 -19.3125 13.5 -19.875 11.625 -19.875 L 9.625 -19.875 L 9.625 -5.640625 L 11.15625 -5.640625 C 13.238281 -5.640625 14.765625 -6.242188 15.734375 -7.453125 C 16.710938 -8.660156 17.203125 -10.515625 17.203125 -13.015625 Z M 17.203125 -13.015625 "/></g></g></g><g fill="#ffffff" fill-opacity="1"><g transform="translate(356.667021, 238.362198)"><g><path d="M 17.84375 0 L 2.75 0 L 2.75 -25.4375 L 17.84375 -25.4375 L 17.84375 -19.921875 L 9.625 -19.921875 L 9.625 -15.921875 L 17.234375 -15.921875 L 17.234375 -10.40625 L 9.625 -10.40625 L 9.625 -5.59375 L 17.84375 -5.59375 Z M 17.84375 0 "/></g></g></g><g fill="#ffffff" fill-opacity="1"><g transform="translate(213.087419, 269.473262)"><g><path d="M 13.25 -13.796875 L 8.078125 -13.796875 L 8.078125 0 L 5.34375 0 L 5.34375 -13.796875 L 0.203125 -13.796875 L 0.203125 -16.265625 L 13.25 -16.265625 Z M 13.25 -13.796875 "/></g></g></g><g fill="#ffffff" fill-opacity="1"><g transform="translate(228.425852, 269.473262)"><g><path d="M 13.75 -13.796875 L 4.875 -13.796875 L 4.875 -9.40625 L 12.828125 -9.40625 L 12.828125 -6.953125 L 4.875 -6.953125 L 4.875 -2.46875 L 14.03125 -2.46875 L 14.03125 0 L 2.140625 0 L 2.140625 -16.265625 L 13.75 -16.265625 Z M 13.75 -13.796875 "/></g></g></g><g fill="#ffffff" fill-opacity="1"><g transform="translate(245.553682, 269.473262)"><g><path d="M 9.34375 -16.328125 C 10.488281 -16.328125 11.601562 -16.109375 12.6875 -15.671875 C 13.78125 -15.234375 14.722656 -14.617188 15.515625 -13.828125 L 13.921875 -11.828125 C 13.328125 -12.460938 12.628906 -12.960938 11.828125 -13.328125 C 11.023438 -13.703125 10.210938 -13.890625 9.390625 -13.890625 C 7.765625 -13.890625 6.390625 -13.335938 5.265625 -12.234375 C 4.140625 -11.128906 3.578125 -9.773438 3.578125 -8.171875 C 3.578125 -6.566406 4.140625 -5.207031 5.265625 -4.09375 C 6.390625 -2.988281 7.765625 -2.4375 9.390625 -2.4375 C 11.078125 -2.4375 12.585938 -3.082031 13.921875 -4.375 L 15.546875 -2.5625 C 14.710938 -1.738281 13.734375 -1.085938 12.609375 -0.609375 C 11.492188 -0.128906 10.375 0.109375 9.25 0.109375 C 6.863281 0.109375 4.859375 -0.679688 3.234375 -2.265625 C 1.609375 -3.847656 0.796875 -5.8125 0.796875 -8.15625 C 0.796875 -10.457031 1.617188 -12.394531 3.265625 -13.96875 C 4.910156 -15.539062 6.9375 -16.328125 9.34375 -16.328125 Z M 9.34375 -16.328125 "/></g></g></g><g fill="#ffffff" fill-opacity="1"><g transform="translate(263.634304, 269.473262)"><g><path d="M 16.234375 0 L 13.5 0 L 13.5 -6.734375 L 4.875 -6.734375 L 4.875 0 L 2.140625 0 L 2.140625 -16.265625 L 4.875 -16.265625 L 4.875 -9.203125 L 13.5 -9.203125 L 13.5 -16.265625 L 16.234375 -16.265625 Z M 16.234375 0 "/></g></g></g></svg>