<svg xmlns="http://www.w3.org/2000/svg" xmlns:xlink="http://www.w3.org/1999/xlink" width="500" zoomAndPan="magnify" viewBox="0 0 375 374.999991" height="500" preserveAspectRatio="xMidYMid meet" version="1.0"><defs><g/><clipPath id="864b50ec97"><path d="M 0.03125 89.460938 L 205.46875 89.460938 L 205.46875 285.203125 L 0.03125 285.203125 Z M 0.03125 89.460938 " clip-rule="nonzero"/></clipPath><clipPath id="9699ca2f9a"><path d="M 157.992188 89.460938 C 121.691406 89.460938 92.269531 118.8125 92.269531 155.019531 L 92.269531 233.742188 C 92.269531 258.402344 72.230469 278.390625 47.507812 278.390625 L 20.992188 278.390625 L 20.992188 212.441406 C 20.992188 201.8125 29.632812 193.195312 40.289062 193.195312 L 60.589844 193.195312 C 66.507812 193.195312 71.304688 188.410156 71.304688 182.507812 L 71.304688 172.285156 L 40.289062 172.285156 C 18.054688 172.285156 0.03125 190.265625 0.03125 212.441406 L 0.03125 285.203125 L 47.507812 285.203125 C 83.808594 285.203125 113.230469 255.851562 113.230469 219.648438 L 113.230469 140.921875 C 113.230469 116.265625 133.269531 96.273438 157.992188 96.273438 L 184.507812 96.273438 L 184.507812 162.222656 C 184.507812 172.851562 175.867188 181.46875 165.210938 181.46875 L 144.910156 181.46875 C 138.992188 181.46875 134.195312 186.253906 134.195312 192.15625 L 134.195312 202.378906 L 165.210938 202.378906 C 187.445312 202.378906 205.46875 184.398438 205.46875 162.222656 L 205.46875 89.460938 Z M 157.992188 89.460938 " clip-rule="nonzero"/></clipPath><clipPath id="fb4564b8a7"><path d="M 157.992188 89.460938 C 121.691406 89.460938 92.269531 118.8125 92.269531 155.019531 L 92.269531 233.742188 C 92.269531 258.402344 72.230469 278.390625 47.507812 278.390625 L 20.992188 278.390625 L 20.992188 212.441406 C 20.992188 201.8125 29.632812 193.195312 40.289062 193.195312 L 60.589844 193.195312 C 66.507812 193.195312 71.304688 188.410156 71.304688 182.507812 L 71.304688 172.285156 L 40.289062 172.285156 C 18.054688 172.285156 0.03125 190.265625 0.03125 212.441406 L 0.03125 285.203125 L 47.507812 285.203125 C 83.808594 285.203125 113.230469 255.851562 113.230469 219.648438 L 113.230469 140.921875 C 113.230469 116.265625 133.269531 96.273438 157.992188 96.273438 L 184.507812 96.273438 L 184.507812 162.222656 C 184.507812 172.851562 175.867188 181.46875 165.210938 181.46875 L 144.910156 181.46875 C 138.992188 181.46875 134.195312 186.253906 134.195312 192.15625 L 134.195312 202.378906 L 165.210938 202.378906 C 187.445312 202.378906 205.46875 184.398438 205.46875 162.222656 L 205.46875 89.460938 L 157.992188 89.460938 " clip-rule="nonzero"/></clipPath><clipPath id="43a921b962"><path d="M 299.484375 215.335938 L 132.140625 -8.714844 L -93.984375 159.328125 L 73.359375 383.378906 Z M 299.484375 215.335938 " clip-rule="nonzero"/></clipPath><linearGradient x1="-0.0049169" gradientTransform="matrix(-380.423731, 282.709253, -283.424833, -379.463251, 213.942409, 104.700197)" y1="0" x2="0.589489" gradientUnits="userSpaceOnUse" y2="0" id="0e4c231184"><stop stop-opacity="1" stop-color="rgb(36.099243%, 79.199219%, 95.698547%)" offset="0"/><stop stop-opacity="1" stop-color="rgb(36.099243%, 79.199219%, 95.698547%)" offset="0.015625"/><stop stop-opacity="1" stop-color="rgb(35.884094%, 79.18396%, 95.698547%)" offset="0.0195313"/><stop stop-opacity="1" stop-color="rgb(35.668945%, 79.170227%, 95.698547%)" offset="0.0234375"/><stop stop-opacity="1" stop-color="rgb(35.473633%, 78.98407%, 95.698547%)" offset="0.03125"/><stop stop-opacity="1" stop-color="rgb(35.083008%, 78.799438%, 95.698547%)" offset="0.0390625"/><stop stop-opacity="1" stop-color="rgb(34.692383%, 78.799438%, 95.698547%)" offset="0.046875"/><stop stop-opacity="1" stop-color="rgb(34.306335%, 78.607178%, 95.698547%)" offset="0.0625"/><stop stop-opacity="1" stop-color="rgb(33.894348%, 78.407288%, 95.698547%)" offset="0.0664063"/><stop stop-opacity="1" stop-color="rgb(33.674622%, 78.399658%, 95.698547%)" offset="0.0703125"/><stop stop-opacity="1" stop-color="rgb(33.479309%, 78.399658%, 95.698547%)" offset="0.078125"/><stop stop-opacity="1" stop-color="rgb(33.091736%, 78.395081%, 95.698547%)" offset="0.0859375"/><stop stop-opacity="1" stop-color="rgb(32.899475%, 78.196716%, 95.698547%)" offset="0.09375"/><stop stop-opacity="1" stop-color="rgb(32.704163%, 77.999878%, 95.698547%)" offset="0.101563"/><stop stop-opacity="1" stop-color="rgb(32.339478%, 77.999878%, 95.683289%)" offset="0.109375"/><stop stop-opacity="1" stop-color="rgb(31.974792%, 77.989197%, 95.483398%)" offset="0.117188"/><stop stop-opacity="1" stop-color="rgb(31.582642%, 77.787781%, 95.298767%)" offset="0.121094"/><stop stop-opacity="1" stop-color="rgb(31.387329%, 77.598572%, 95.298767%)" offset="0.125"/><stop stop-opacity="1" stop-color="rgb(31.193542%, 77.598572%, 95.298767%)" offset="0.140625"/><stop stop-opacity="1" stop-color="rgb(30.781555%, 77.586365%, 95.298767%)" offset="0.144531"/><stop stop-opacity="1" stop-color="rgb(30.56488%, 77.574158%, 95.298767%)" offset="0.148438"/><stop stop-opacity="1" stop-color="rgb(30.369568%, 77.436829%, 95.298767%)" offset="0.15625"/><stop stop-opacity="1" stop-color="rgb(29.978943%, 77.2995%, 95.298767%)" offset="0.164063"/><stop stop-opacity="1" stop-color="rgb(29.59137%, 77.2995%, 95.298767%)" offset="0.171875"/><stop stop-opacity="1" stop-color="rgb(29.205322%, 77.104187%, 95.298767%)" offset="0.1875"/><stop stop-opacity="1" stop-color="rgb(28.790283%, 76.904297%, 95.298767%)" offset="0.191406"/><stop stop-opacity="1" stop-color="rgb(28.570557%, 76.899719%, 95.298767%)" offset="0.195313"/><stop stop-opacity="1" stop-color="rgb(28.373718%, 76.889038%, 95.298767%)" offset="0.199219"/><stop stop-opacity="1" stop-color="rgb(28.178406%, 76.878357%, 95.298767%)" offset="0.203125"/><stop stop-opacity="1" stop-color="rgb(27.987671%, 76.689148%, 95.298767%)" offset="0.21875"/><stop stop-opacity="1" stop-color="rgb(27.650452%, 76.499939%, 95.298767%)" offset="0.226563"/><stop stop-opacity="1" stop-color="rgb(27.284241%, 76.481628%, 95.298767%)" offset="0.230469"/><stop stop-opacity="1" stop-color="rgb(27.06604%, 76.464844%, 95.298767%)" offset="0.234375"/><stop stop-opacity="1" stop-color="rgb(26.869202%, 76.281738%, 95.298767%)" offset="0.238281"/><stop stop-opacity="1" stop-color="rgb(26.673889%, 76.098633%, 95.298767%)" offset="0.242188"/><stop stop-opacity="1" stop-color="rgb(26.486206%, 76.098633%, 95.298767%)" offset="0.25"/><stop stop-opacity="1" stop-color="rgb(26.295471%, 76.098633%, 95.298767%)" offset="0.257812"/><stop stop-opacity="1" stop-color="rgb(26.097107%, 76.098633%, 95.298767%)" offset="0.265625"/><stop stop-opacity="1" stop-color="rgb(25.680542%, 75.898743%, 95.098877%)" offset="0.269531"/><stop stop-opacity="1" stop-color="rgb(25.460815%, 75.698853%, 94.898987%)" offset="0.273438"/><stop stop-opacity="1" stop-color="rgb(25.265503%, 75.698853%, 94.898987%)" offset="0.28125"/><stop stop-opacity="1" stop-color="rgb(24.879456%, 75.692749%, 94.898987%)" offset="0.296875"/><stop stop-opacity="1" stop-color="rgb(24.493408%, 75.492859%, 94.898987%)" offset="0.304688"/><stop stop-opacity="1" stop-color="rgb(24.101257%, 75.299072%, 94.898987%)" offset="0.308594"/><stop stop-opacity="1" stop-color="rgb(23.905945%, 75.299072%, 94.898987%)" offset="0.3125"/><stop stop-opacity="1" stop-color="rgb(23.684692%, 75.299072%, 94.898987%)" offset="0.316406"/><stop stop-opacity="1" stop-color="rgb(23.464966%, 75.299072%, 94.898987%)" offset="0.320313"/><stop stop-opacity="1" stop-color="rgb(23.269653%, 75.286865%, 94.898987%)" offset="0.328125"/><stop stop-opacity="1" stop-color="rgb(22.883606%, 75.086975%, 94.898987%)" offset="0.34375"/><stop stop-opacity="1" stop-color="rgb(22.547913%, 74.899292%, 94.898987%)" offset="0.351563"/><stop stop-opacity="1" stop-color="rgb(22.181702%, 74.879456%, 94.898987%)" offset="0.355469"/><stop stop-opacity="1" stop-color="rgb(21.961975%, 74.861145%, 94.898987%)" offset="0.359375"/><stop stop-opacity="1" stop-color="rgb(21.765137%, 74.679565%, 94.898987%)" offset="0.363281"/><stop stop-opacity="1" stop-color="rgb(21.569824%, 74.499512%, 94.898987%)" offset="0.367188"/><stop stop-opacity="1" stop-color="rgb(21.383667%, 74.499512%, 94.898987%)" offset="0.375"/><stop stop-opacity="1" stop-color="rgb(21.192932%, 74.499512%, 94.898987%)" offset="0.382813"/><stop stop-opacity="1" stop-color="rgb(20.993042%, 74.497986%, 94.898987%)" offset="0.390625"/><stop stop-opacity="1" stop-color="rgb(20.576477%, 74.298096%, 94.898987%)" offset="0.394531"/><stop stop-opacity="1" stop-color="rgb(20.35675%, 74.099731%, 94.898987%)" offset="0.398438"/><stop stop-opacity="1" stop-color="rgb(20.161438%, 74.099731%, 94.898987%)" offset="0.40625"/><stop stop-opacity="1" stop-color="rgb(19.78302%, 74.087524%, 94.88678%)" offset="0.414063"/><stop stop-opacity="1" stop-color="rgb(19.592285%, 73.887634%, 94.68689%)" offset="0.421875"/><stop stop-opacity="1" stop-color="rgb(19.387817%, 73.699951%, 94.499207%)" offset="0.425781"/><stop stop-opacity="1" stop-color="rgb(19.192505%, 73.699951%, 94.499207%)" offset="0.429688"/><stop stop-opacity="1" stop-color="rgb(18.997192%, 73.699951%, 94.499207%)" offset="0.4375"/><stop stop-opacity="1" stop-color="rgb(18.580627%, 73.680115%, 94.499207%)" offset="0.441406"/><stop stop-opacity="1" stop-color="rgb(18.360901%, 73.661804%, 94.499207%)" offset="0.445313"/><stop stop-opacity="1" stop-color="rgb(18.179321%, 73.480225%, 94.499207%)" offset="0.453125"/><stop stop-opacity="1" stop-color="rgb(17.988586%, 73.298645%, 94.499207%)" offset="0.460938"/><stop stop-opacity="1" stop-color="rgb(17.785645%, 73.298645%, 94.499207%)" offset="0.46875"/><stop stop-opacity="1" stop-color="rgb(17.443848%, 73.297119%, 94.499207%)" offset="0.476563"/><stop stop-opacity="1" stop-color="rgb(17.076111%, 73.097229%, 94.499207%)" offset="0.480469"/><stop stop-opacity="1" stop-color="rgb(16.856384%, 72.898865%, 94.499207%)" offset="0.484375"/><stop stop-opacity="1" stop-color="rgb(16.665649%, 72.898865%, 94.499207%)" offset="0.5"/><stop stop-opacity="1" stop-color="rgb(16.279602%, 72.891235%, 94.499207%)" offset="0.507813"/><stop stop-opacity="1" stop-color="rgb(15.887451%, 72.691345%, 94.499207%)" offset="0.511719"/><stop stop-opacity="1" stop-color="rgb(15.692139%, 72.499084%, 94.499207%)" offset="0.515625"/><stop stop-opacity="1" stop-color="rgb(15.472412%, 72.499084%, 94.499207%)" offset="0.519531"/><stop stop-opacity="1" stop-color="rgb(15.252686%, 72.499084%, 94.499207%)" offset="0.523438"/><stop stop-opacity="1" stop-color="rgb(15.075684%, 72.499084%, 94.499207%)" offset="0.53125"/><stop stop-opacity="1" stop-color="rgb(14.884949%, 72.488403%, 94.499207%)" offset="0.539063"/><stop stop-opacity="1" stop-color="rgb(14.674377%, 72.337341%, 94.499207%)" offset="0.542969"/><stop stop-opacity="1" stop-color="rgb(14.479065%, 72.198486%, 94.499207%)" offset="0.546875"/><stop stop-opacity="1" stop-color="rgb(14.283752%, 72.198486%, 94.499207%)" offset="0.554688"/><stop stop-opacity="1" stop-color="rgb(13.893127%, 72.198486%, 94.499207%)" offset="0.5625"/><stop stop-opacity="1" stop-color="rgb(13.476562%, 72.177124%, 94.477844%)" offset="0.566406"/><stop stop-opacity="1" stop-color="rgb(13.256836%, 72.157288%, 94.456482%)" offset="0.570313"/><stop stop-opacity="1" stop-color="rgb(13.078308%, 71.977234%, 94.277954%)" offset="0.578125"/><stop stop-opacity="1" stop-color="rgb(12.887573%, 71.798706%, 94.099426%)" offset="0.585938"/><stop stop-opacity="1" stop-color="rgb(12.68158%, 71.791077%, 94.099426%)" offset="0.59375"/><stop stop-opacity="1" stop-color="rgb(12.339783%, 71.591187%, 94.099426%)" offset="0.601563"/><stop stop-opacity="1" stop-color="rgb(11.972046%, 71.398926%, 94.099426%)" offset="0.605469"/><stop stop-opacity="1" stop-color="rgb(11.752319%, 71.398926%, 94.099426%)" offset="0.609375"/><stop stop-opacity="1" stop-color="rgb(11.561584%, 71.385193%, 94.099426%)" offset="0.625"/><stop stop-opacity="1" stop-color="rgb(11.175537%, 71.185303%, 94.099426%)" offset="0.632813"/><stop stop-opacity="1" stop-color="rgb(10.783386%, 70.999146%, 94.099426%)" offset="0.636719"/><stop stop-opacity="1" stop-color="rgb(10.588074%, 70.999146%, 94.099426%)" offset="0.640625"/><stop stop-opacity="1" stop-color="rgb(10.368347%, 70.999146%, 94.099426%)" offset="0.644531"/><stop stop-opacity="1" stop-color="rgb(10.148621%, 70.999146%, 94.099426%)" offset="0.648438"/><stop stop-opacity="1" stop-color="rgb(9.973145%, 70.977783%, 94.099426%)" offset="0.65625"/><stop stop-opacity="1" stop-color="rgb(9.78241%, 70.777893%, 94.099426%)" offset="0.664063"/><stop stop-opacity="1" stop-color="rgb(9.570312%, 70.599365%, 94.099426%)" offset="0.667969"/><stop stop-opacity="1" stop-color="rgb(9.375%, 70.599365%, 94.099426%)" offset="0.671875"/><stop stop-opacity="1" stop-color="rgb(9.179688%, 70.599365%, 94.099426%)" offset="0.679688"/><stop stop-opacity="1" stop-color="rgb(8.787537%, 70.596313%, 94.099426%)" offset="0.683594"/><stop stop-opacity="1" stop-color="rgb(8.592224%, 70.593262%, 94.099426%)" offset="0.6875"/><stop stop-opacity="1" stop-color="rgb(8.395386%, 70.396423%, 94.099426%)" offset="0.691406"/><stop stop-opacity="1" stop-color="rgb(8.198547%, 70.199585%, 94.099426%)" offset="0.695313"/><stop stop-opacity="1" stop-color="rgb(8.180237%, 70.199585%, 94.099426%)" offset="0.703125"/><stop stop-opacity="1" stop-color="rgb(7.969666%, 70.199585%, 94.099426%)" offset="0.710938"/><stop stop-opacity="1" stop-color="rgb(7.627869%, 70.188904%, 94.088745%)" offset="0.71875"/><stop stop-opacity="1" stop-color="rgb(7.28302%, 69.989014%, 93.888855%)" offset="0.722656"/><stop stop-opacity="1" stop-color="rgb(7.087708%, 69.799805%, 93.699646%)" offset="0.726563"/><stop stop-opacity="1" stop-color="rgb(6.892395%, 69.799805%, 93.699646%)" offset="0.734375"/><stop stop-opacity="1" stop-color="rgb(6.677246%, 69.799805%, 93.699646%)" offset="0.742188"/><stop stop-opacity="1" stop-color="rgb(6.462097%, 69.78302%, 93.699646%)" offset="0.75"/><stop stop-opacity="1" stop-color="rgb(6.071472%, 69.581604%, 93.699646%)" offset="0.757813"/><stop stop-opacity="1" stop-color="rgb(5.679321%, 69.398499%, 93.699646%)" offset="0.761719"/><stop stop-opacity="1" stop-color="rgb(5.482483%, 69.398499%, 93.699646%)" offset="0.765625"/><stop stop-opacity="1" stop-color="rgb(5.290222%, 69.398499%, 93.699646%)" offset="0.773438"/><stop stop-opacity="1" stop-color="rgb(5.076599%, 69.37561%, 93.699646%)" offset="0.78125"/><stop stop-opacity="1" stop-color="rgb(4.856873%, 69.17572%, 93.699646%)" offset="0.785156"/><stop stop-opacity="1" stop-color="rgb(4.66156%, 68.998718%, 93.699646%)" offset="0.789063"/><stop stop-opacity="1" stop-color="rgb(4.466248%, 68.998718%, 93.699646%)" offset="0.796875"/><stop stop-opacity="1" stop-color="rgb(4.075623%, 68.989563%, 93.699646%)" offset="0.804688"/><stop stop-opacity="1" stop-color="rgb(3.683472%, 68.789673%, 93.699646%)" offset="0.808594"/><stop stop-opacity="1" stop-color="rgb(3.488159%, 68.598938%, 93.699646%)" offset="0.8125"/><stop stop-opacity="1" stop-color="rgb(3.292847%, 68.598938%, 93.699646%)" offset="0.820313"/><stop stop-opacity="1" stop-color="rgb(3.077698%, 68.598938%, 93.699646%)" offset="0.828125"/><stop stop-opacity="1" stop-color="rgb(2.865601%, 68.582153%, 93.699646%)" offset="0.835938"/><stop stop-opacity="1" stop-color="rgb(2.52533%, 68.382263%, 93.699646%)" offset="0.84375"/><stop stop-opacity="1" stop-color="rgb(2.186584%, 68.199158%, 93.67981%)" offset="0.851563"/><stop stop-opacity="1" stop-color="rgb(2.198792%, 67.999268%, 93.280029%)" offset="0.855469"/><stop stop-opacity="1" stop-color="rgb(2.398682%, 67.799377%, 92.89856%)" offset="0.859375"/><stop stop-opacity="1" stop-color="rgb(2.398682%, 67.764282%, 92.698669%)" offset="0.863281"/><stop stop-opacity="1" stop-color="rgb(2.398682%, 67.730713%, 92.498779%)" offset="0.867188"/><stop stop-opacity="1" stop-color="rgb(2.426147%, 67.614746%, 92.349243%)" offset="0.875"/><stop stop-opacity="1" stop-color="rgb(2.577209%, 67.298889%, 91.999817%)" offset="0.878906"/><stop stop-opacity="1" stop-color="rgb(2.69928%, 67.098999%, 91.799927%)" offset="0.882813"/><stop stop-opacity="1" stop-color="rgb(2.69928%, 66.899109%, 91.78009%)" offset="0.886719"/><stop stop-opacity="1" stop-color="rgb(2.69928%, 66.699219%, 91.76178%)" offset="0.890625"/><stop stop-opacity="1" stop-color="rgb(2.758789%, 66.639709%, 91.520691%)" offset="0.894531"/><stop stop-opacity="1" stop-color="rgb(2.818298%, 66.5802%, 91.279602%)" offset="0.898438"/><stop stop-opacity="1" stop-color="rgb(2.958679%, 66.439819%, 91.088867%)" offset="0.90625"/><stop stop-opacity="1" stop-color="rgb(3.09906%, 66.099548%, 90.707397%)" offset="0.910156"/><stop stop-opacity="1" stop-color="rgb(3.09906%, 65.899658%, 90.516663%)" offset="0.914063"/><stop stop-opacity="1" stop-color="rgb(3.29895%, 65.866089%, 90.325928%)" offset="0.917969"/><stop stop-opacity="1" stop-color="rgb(3.49884%, 65.834045%, 90.135193%)" offset="0.921875"/><stop stop-opacity="1" stop-color="rgb(3.49884%, 65.666199%, 89.944458%)" offset="0.929688"/><stop stop-opacity="1" stop-color="rgb(3.517151%, 65.298462%, 89.556885%)" offset="0.933594"/><stop stop-opacity="1" stop-color="rgb(3.536987%, 65.098572%, 89.361572%)" offset="0.9375"/><stop stop-opacity="1" stop-color="rgb(3.717041%, 65.04364%, 89.125061%)" offset="0.941406"/><stop stop-opacity="1" stop-color="rgb(3.898621%, 64.988708%, 88.890076%)" offset="0.945313"/><stop stop-opacity="1" stop-color="rgb(3.898621%, 64.84375%, 88.697815%)" offset="0.953125"/><stop stop-opacity="1" stop-color="rgb(3.935242%, 64.498901%, 88.316345%)" offset="0.957031"/><stop stop-opacity="1" stop-color="rgb(3.971863%, 64.299011%, 88.12561%)" offset="0.960938"/><stop stop-opacity="1" stop-color="rgb(4.135132%, 64.271545%, 87.940979%)" offset="0.96875"/><stop stop-opacity="1" stop-color="rgb(4.299927%, 64.071655%, 87.628174%)" offset="0.976563"/><stop stop-opacity="1" stop-color="rgb(4.499817%, 63.699341%, 87.298584%)" offset="0.980469"/><stop stop-opacity="1" stop-color="rgb(4.699707%, 63.499451%, 87.098694%)" offset="0.984375"/><stop stop-opacity="1" stop-color="rgb(4.699707%, 63.449097%, 86.898804%)" offset="0.988281"/><stop stop-opacity="1" stop-color="rgb(4.699707%, 63.398743%, 86.698914%)" offset="0.992188"/><stop stop-opacity="1" stop-color="rgb(4.699707%, 63.249207%, 86.499023%)" offset="0.996094"/><stop stop-opacity="1" stop-color="rgb(4.699707%, 63.09967%, 86.299133%)" offset="1"/></linearGradient></defs><g clip-path="url(#864b50ec97)"><g clip-path="url(#9699ca2f9a)"><g clip-path="url(#fb4564b8a7)"><g clip-path="url(#43a921b962)"><path fill="url(#0e4c231184)" d="M 299.484375 215.335938 L 132.140625 -8.714844 L -93.984375 159.328125 L 73.359375 383.378906 Z M 299.484375 215.335938 " fill-rule="nonzero"/></g></g></g></g><g fill="#000000" fill-opacity="1"><g transform="translate(118.772423, 238.297146)"><g><path d="M 2.75 0 L 2.75 -25.390625 L 9.640625 -25.390625 L 9.640625 0 Z M 2.75 0 "/></g></g></g><g fill="#000000" fill-opacity="1"><g transform="translate(136.461212, 238.297146)"><g><path d="M 26.921875 0 L 17.921875 0 L 8.65625 -17.890625 L 8.5 -17.890625 C 8.71875 -15.078125 8.828125 -12.929688 8.828125 -11.453125 L 8.828125 0 L 2.75 0 L 2.75 -25.390625 L 11.703125 -25.390625 L 20.953125 -7.75 L 21.0625 -7.75 C 20.894531 -10.3125 20.8125 -12.367188 20.8125 -13.921875 L 20.8125 -25.390625 L 26.921875 -25.390625 Z M 26.921875 0 "/></g></g></g><g fill="#000000" fill-opacity="1"><g transform="translate(171.434938, 238.297146)"><g><path d="M 9.5 0 L 2.75 0 L 2.75 -25.390625 L 17.75 -25.390625 L 17.75 -19.890625 L 9.5 -19.890625 L 9.5 -15.046875 L 17.109375 -15.046875 L 17.109375 -9.53125 L 9.5 -9.53125 Z M 9.5 0 "/></g></g></g><g fill="#000000" fill-opacity="1"><g transform="translate(195.916098, 238.297146)"><g><path d="M 2.75 0 L 2.75 -25.390625 L 9.640625 -25.390625 L 9.640625 0 Z M 2.75 0 "/></g></g></g><g fill="#000000" fill-opacity="1"><g transform="translate(213.604887, 238.297146)"><g><path d="M 26.921875 0 L 17.921875 0 L 8.65625 -17.890625 L 8.5 -17.890625 C 8.71875 -15.078125 8.828125 -12.929688 8.828125 -11.453125 L 8.828125 0 L 2.75 0 L 2.75 -25.390625 L 11.703125 -25.390625 L 20.953125 -7.75 L 21.0625 -7.75 C 20.894531 -10.3125 20.8125 -12.367188 20.8125 -13.921875 L 20.8125 -25.390625 L 26.921875 -25.390625 Z M 26.921875 0 "/></g></g></g><g fill="#000000" fill-opacity="1"><g transform="translate(248.578613, 238.297146)"><g><path d="M 2.75 0 L 2.75 -25.390625 L 9.640625 -25.390625 L 9.640625 0 Z M 2.75 0 "/></g></g></g><g fill="#000000" fill-opacity="1"><g transform="translate(266.267401, 238.297146)"><g><path d="M 13.953125 0 L 7.09375 0 L 7.09375 -19.78125 L 0.890625 -19.78125 L 0.890625 -25.390625 L 20.140625 -25.390625 L 20.140625 -19.78125 L 13.953125 -19.78125 Z M 13.953125 0 "/></g></g></g><g fill="#000000" fill-opacity="1"><g transform="translate(292.589981, 238.297146)"><g><path d="M 24.34375 -25.390625 L 24.34375 -10.109375 C 24.34375 -6.785156 23.398438 -4.210938 21.515625 -2.390625 C 19.628906 -0.566406 16.914062 0.34375 13.375 0.34375 C 9.914062 0.34375 7.253906 -0.539062 5.390625 -2.3125 C 3.535156 -4.082031 2.609375 -6.628906 2.609375 -9.953125 L 2.609375 -25.390625 L 9.5 -25.390625 L 9.5 -10.5 C 9.5 -8.695312 9.832031 -7.390625 10.5 -6.578125 C 11.175781 -5.773438 12.171875 -5.375 13.484375 -5.375 C 14.878906 -5.375 15.890625 -5.773438 16.515625 -6.578125 C 17.148438 -7.378906 17.46875 -8.695312 17.46875 -10.53125 L 17.46875 -25.390625 Z M 24.34375 -25.390625 "/></g></g></g><g fill="#000000" fill-opacity="1"><g transform="translate(324.81897, 238.297146)"><g><path d="M 24.296875 -13.234375 C 24.296875 -8.992188 23.128906 -5.726562 20.796875 -3.4375 C 18.460938 -1.144531 15.1875 0 10.96875 0 L 2.75 0 L 2.75 -25.390625 L 11.53125 -25.390625 C 15.613281 -25.390625 18.757812 -24.347656 20.96875 -22.265625 C 23.1875 -20.179688 24.296875 -17.171875 24.296875 -13.234375 Z M 17.1875 -13 C 17.1875 -15.320312 16.722656 -17.046875 15.796875 -18.171875 C 14.878906 -19.296875 13.484375 -19.859375 11.609375 -19.859375 L 9.609375 -19.859375 L 9.609375 -5.625 L 11.140625 -5.625 C 13.222656 -5.625 14.75 -6.226562 15.71875 -7.4375 C 16.695312 -8.65625 17.1875 -10.507812 17.1875 -13 Z M 17.1875 -13 "/></g></g></g><g fill="#000000" fill-opacity="1"><g transform="translate(356.23147, 238.297146)"><g><path d="M 17.828125 0 L 2.75 0 L 2.75 -25.390625 L 17.828125 -25.390625 L 17.828125 -19.890625 L 9.609375 -19.890625 L 9.609375 -15.890625 L 17.21875 -15.890625 L 17.21875 -10.390625 L 9.609375 -10.390625 L 9.609375 -5.59375 L 17.828125 -5.59375 Z M 17.828125 0 "/></g></g></g><g fill="#000000" fill-opacity="1"><g transform="translate(212.827215, 269.373146)"><g><path d="M 13.234375 -13.796875 L 8.078125 -13.796875 L 8.078125 0 L 5.34375 0 L 5.34375 -13.796875 L 0.203125 -13.796875 L 0.203125 -16.25 L 13.234375 -16.25 Z M 13.234375 -13.796875 "/></g></g></g><g fill="#000000" fill-opacity="1"><g transform="translate(228.146917, 269.373146)"><g><path d="M 13.75 -13.796875 L 4.875 -13.796875 L 4.875 -9.40625 L 12.8125 -9.40625 L 12.8125 -6.9375 L 4.875 -6.9375 L 4.875 -2.46875 L 14.03125 -2.46875 L 14.03125 0 L 2.140625 0 L 2.140625 -16.25 L 13.75 -16.25 Z M 13.75 -13.796875 "/></g></g></g><g fill="#000000" fill-opacity="1"><g transform="translate(245.253831, 269.373146)"><g><path d="M 9.328125 -16.328125 C 10.472656 -16.328125 11.59375 -16.101562 12.6875 -15.65625 C 13.78125 -15.21875 14.722656 -14.601562 15.515625 -13.8125 L 13.90625 -11.8125 C 13.320312 -12.445312 12.625 -12.953125 11.8125 -13.328125 C 11.007812 -13.703125 10.195312 -13.890625 9.375 -13.890625 C 7.75 -13.890625 6.375 -13.332031 5.25 -12.21875 C 4.132812 -11.113281 3.578125 -9.765625 3.578125 -8.171875 C 3.578125 -6.566406 4.132812 -5.207031 5.25 -4.09375 C 6.375 -2.988281 7.75 -2.4375 9.375 -2.4375 C 11.0625 -2.4375 12.570312 -3.078125 13.90625 -4.359375 L 15.53125 -2.546875 C 14.695312 -1.734375 13.722656 -1.085938 12.609375 -0.609375 C 11.492188 -0.128906 10.367188 0.109375 9.234375 0.109375 C 6.859375 0.109375 4.859375 -0.679688 3.234375 -2.265625 C 1.609375 -3.847656 0.796875 -5.8125 0.796875 -8.15625 C 0.796875 -10.457031 1.617188 -12.394531 3.265625 -13.96875 C 4.910156 -15.539062 6.929688 -16.328125 9.328125 -16.328125 Z M 9.328125 -16.328125 "/></g></g></g><g fill="#000000" fill-opacity="1"><g transform="translate(263.312372, 269.373146)"><g><path d="M 16.234375 0 L 13.484375 0 L 13.484375 -6.734375 L 4.875 -6.734375 L 4.875 0 L 2.140625 0 L 2.140625 -16.25 L 4.875 -16.25 L 4.875 -9.1875 L 13.484375 -9.1875 L 13.484375 -16.25 L 16.234375 -16.25 Z M 16.234375 0 "/></g></g></g></svg>